# xmcd CD database file
#
# Track frame offsets:
#	150
#	18042
#	35320
#	53220
#
# Disc length: 939 seconds
#
# Revision: 0
# Processed by: cddbd v1.5.1PL0 Copyright (c) Steve Scherf et al.
# Submitted via: CDex 1.51
#
DISCID=2303a904
DTITLE=中村祐介、貝田由里子 - SUPER GUYS！
DYEAR=2000
DGENRE=Anime
TTITLE0=SUPER GUYS！
TTITLE1=年下のボク
TTITLE2=SUPER GUYS！ (オリジナル・カラオケ)
TTITLE3=年下のボク (オリジナル・カラオケ)
EXTD=YEAR: 2000
EXTT0=
EXTT1=
EXTT2=
EXTT3=
PLAYORDER=
